<svg width="38" height="38" viewBox="0 0 38 38" fill="none" xmlns="http://www.w3.org/2000/svg">
<g id="Asset 1 1" clip-path="url(#clip0_2104_246)">
<g id="Layer 2">
<g id="Layer 1">
<path id="Vector" fill-rule="evenodd" clip-rule="evenodd" d="M8.75166 6.92222C8.39771 6.9197 8.04496 6.9638 7.70251 7.05337V7.10254H7.75169C7.99601 7.47391 8.27013 7.82478 8.57134 8.15169C8.77352 8.56152 8.95384 8.97134 9.15602 9.38117L9.21067 9.32652C9.40329 9.17773 9.55463 8.98212 9.65027 8.7583C9.74592 8.53449 9.7827 8.28992 9.7571 8.04787C9.6041 7.86755 9.58224 7.69269 9.4511 7.50144C9.31995 7.31019 8.94292 7.15719 8.75166 6.92222Z" fill="#5D87A1"/>
<path id="Vector_2" fill-rule="evenodd" clip-rule="evenodd" d="M34.8383 29.1511C33.1523 29.0305 31.46 29.2746 29.8767 29.8669C29.4888 30.0199 28.8768 30.0199 28.8276 30.5062C29.0298 30.7084 29.0571 31.0527 29.2374 31.3259C29.5877 31.9171 30.0369 32.4438 30.5652 32.8832C31.1117 33.293 31.6581 33.7029 32.2045 34.0581C33.199 34.6755 34.3247 35.0307 35.2973 35.6482C35.8438 36.0033 36.423 36.4623 36.9858 36.8503C37.2645 37.0525 37.4448 37.3968 37.8 37.5115V37.435C37.6197 37.2055 37.5705 36.8886 37.3956 36.6154L36.6252 35.8777C35.8773 34.8854 34.9817 34.0138 33.9695 33.293C33.1499 32.7466 31.3576 31.9598 31.0242 31.0199L30.9751 30.9652C31.5744 30.8812 32.165 30.744 32.74 30.5554C33.6089 30.3259 34.3793 30.3751 35.2973 30.1456C35.7072 30.0418 36.1115 29.9161 36.5268 29.7904V29.5609C36.0624 29.1019 35.729 28.4681 35.2482 28.0528C33.9242 26.897 32.5119 25.8465 31.0242 24.9108C30.2319 24.3971 29.2101 24.0638 28.3631 23.6321C28.0571 23.4791 27.5489 23.4026 27.3686 23.1458C26.9494 22.5277 26.5977 21.8663 26.3195 21.1732C25.5763 19.7689 24.8605 18.2115 24.2212 16.7252C23.8433 15.7287 23.4091 14.7545 22.9207 13.8073C20.2814 9.46314 17.4181 6.82933 13.0193 4.24471C11.9804 3.74471 10.8769 3.39161 9.74071 3.19556C9.10139 3.19556 8.46206 3.11906 7.82274 3.09174C7.40724 2.82571 7.01431 2.52598 6.64791 2.19559C5.1944 1.27212 1.43494 -0.722359 0.363937 1.91144C-0.330032 3.55074 1.38577 5.19004 1.97045 6.0534C2.46608 6.64951 2.90341 7.29177 3.27642 7.97138C3.45674 8.40852 3.50592 8.86753 3.68624 9.32653C4.06094 10.4955 4.50432 11.6414 5.01407 12.7581C5.29178 13.3078 5.60766 13.8373 5.9594 14.3428C6.16705 14.6215 6.50583 14.7471 6.60419 15.2116C6.24355 15.7198 6.21623 16.4903 6.01405 17.1296C5.1179 20.0202 5.45122 23.5993 6.75719 25.7359C7.16155 26.3752 8.1342 27.785 9.44017 27.244C10.5931 26.785 10.3363 25.3315 10.6696 24.0529C10.7461 23.7414 10.6696 23.5392 10.8445 23.3371V23.3862C11.2051 24.1021 11.5603 24.7906 11.8937 25.5064C12.8055 26.8248 13.9301 27.9826 15.2214 28.9325C15.8334 29.397 16.3143 30.1893 17.0848 30.468V30.3915H17.0356C16.8651 30.1938 16.6662 30.0226 16.4454 29.8833C15.9645 29.4059 15.5206 28.8926 15.1176 28.3478C14.0333 26.8797 13.0754 25.3222 12.2543 23.6922C11.8445 22.8999 11.4838 22.0529 11.1614 21.2388C11.0084 20.9327 11.0084 20.4683 10.7516 20.3153C10.2788 20.8473 9.86648 21.4301 9.52214 22.0529C9.03581 23.1458 8.97571 24.5119 8.80631 25.9162C8.70249 25.9435 8.75714 25.9162 8.70249 25.9654C7.88831 25.7632 7.60963 24.9217 7.29816 24.2059C6.50061 22.0108 6.42025 19.6192 7.06866 17.3755C7.24352 16.829 8.01399 15.1515 7.70798 14.6433C7.54952 14.157 7.04134 13.8783 6.76266 13.4958C6.40441 12.9794 6.09524 12.4305 5.83919 11.8565C5.22172 10.403 4.91025 8.79649 4.24907 7.3867C3.88032 6.69364 3.45252 6.03365 2.97042 5.41408C2.43784 4.79582 1.96575 4.12794 1.56062 3.4196C1.43494 3.14092 1.25462 2.68191 1.46227 2.37591C1.47801 2.28534 1.52374 2.20268 1.59213 2.14124C1.66051 2.07979 1.74757 2.04312 1.8393 2.03712C2.17263 1.75844 3.11796 2.11362 3.4786 2.27209C4.34978 2.60635 5.18169 3.03513 5.9594 3.55074C6.32005 3.8021 6.70255 4.28842 7.16155 4.41957H7.70798C8.52217 4.59443 9.44564 4.46875 10.2161 4.69825C11.5099 5.13311 12.745 5.72591 13.8936 6.46322C17.2796 8.62033 20.0326 11.6373 21.8715 15.2061C22.183 15.7908 22.3087 16.3318 22.5928 16.9438C23.1392 18.2006 23.7949 19.4792 24.3305 20.7032C24.8006 21.9116 25.4093 23.0614 26.1446 24.1294C26.5271 24.6758 28.0626 24.949 28.7565 25.2222C29.2647 25.4517 30.0571 25.6539 30.5215 25.9326C31.3904 26.479 32.2592 27.0856 33.0788 27.6757C33.4832 27.9817 34.7618 28.6211 34.8438 29.1347" fill="#00758F"/>
</g>
</g>
</g>
<defs>
<clipPath id="clip0_2104_246">
<rect width="37.6" height="36.9115" fill="white" transform="translate(0.200012 0.600006)"/>
</clipPath>
</defs>
</svg>
